# xmcd
#
# Track frame offsets:
#	150
#	8805
#	25544
#	36603
#
# Disc length: 832 seconds
#
# Revision: 0
# Processed by: cddbd v1.5.2PL0 Copyright (c) Steve Scherf et al.
# Submitted via: EasyCDDAExtractor 12.0.1.1
#
DISCID=26033e04
DTITLE=Deb Pat and Bruce - Demo
DYEAR=1900
DGENRE=
TTITLE0=Walkin' After Midnight
TTITLE1=Night Life
TTITLE2=Kansas City
TTITLE3=Come On In My Kitchen
EXTD=
EXTT0=
EXTT1=
EXTT2=
EXTT3=
PLAYORDER=
